<svg id="_01" data-name="01" xmlns="http://www.w3.org/2000/svg" xmlns:xlink="http://www.w3.org/1999/xlink" viewBox="0 0 32 32"><defs><style>.cls-1{fill:#828181;}.cls-1,.cls-12,.cls-2,.cls-7{stroke:#3a3a3a;}.cls-1,.cls-11,.cls-12,.cls-34,.cls-7{stroke-linejoin:round;}.cls-1,.cls-11,.cls-2{stroke-width:0.25px;}.cls-2{fill:#cecece;}.cls-17,.cls-18,.cls-19,.cls-2,.cls-20,.cls-21,.cls-22,.cls-23,.cls-24,.cls-25,.cls-26,.cls-27,.cls-28,.cls-29,.cls-3,.cls-30,.cls-31,.cls-4,.cls-5,.cls-6{stroke-miterlimit:10;}.cls-11,.cls-3,.cls-4,.cls-5,.cls-6{stroke:#000;}.cls-3,.cls-4{stroke-width:0.27px;}.cls-4,.cls-6{fill:#5b3b25;}.cls-5,.cls-6{stroke-width:0.28px;}.cls-11,.cls-34,.cls-7{stroke-linecap:round;}.cls-7{stroke-width:0.22px;fill:url(#名称未設定グラデーション_195);}.cls-8{fill:#161616;}.cls-9{fill:#fadb53;}.cls-10{fill:#906b57;}.cls-11{fill:#ab8a6d;}.cls-12{fill:#818183;stroke-width:0.49px;}.cls-13{fill:#d39e7f;}.cls-14{fill:#3a3a3a;}.cls-15{fill:url(#名称未設定グラデーション_160);}.cls-16{fill:#db280f;}.cls-17,.cls-18,.cls-19,.cls-20,.cls-21,.cls-22,.cls-23,.cls-24,.cls-25,.cls-26,.cls-27,.cls-28,.cls-29,.cls-30,.cls-31{stroke:#020202;stroke-width:0.25px;}.cls-17{fill:url(#名称未設定グラデーション_103);}.cls-18{fill:url(#名称未設定グラデーション_103-2);}.cls-19{fill:url(#名称未設定グラデーション_103-3);}.cls-20{fill:url(#名称未設定グラデーション_103-4);}.cls-21{fill:url(#名称未設定グラデーション_103-5);}.cls-22{fill:url(#名称未設定グラデーション_103-6);}.cls-23{fill:url(#名称未設定グラデーション_103-7);}.cls-24{fill:url(#名称未設定グラデーション_103-8);}.cls-25{fill:url(#名称未設定グラデーション_103-9);}.cls-26{fill:url(#名称未設定グラデーション_103-10);}.cls-27{fill:url(#名称未設定グラデーション_103-11);}.cls-28{fill:url(#名称未設定グラデーション_103-12);}.cls-29{fill:url(#名称未設定グラデーション_103-13);}.cls-30{fill:url(#名称未設定グラデーション_103-14);}.cls-31{fill:url(#名称未設定グラデーション_103-15);}.cls-32{fill:#f4efea;}.cls-33{fill:#23201c;}.cls-34{fill:none;stroke:#232323;stroke-width:0.75px;}</style><linearGradient id="名称未設定グラデーション_195" x1="8.21" y1="23.9" x2="23.81" y2="23.9" gradientUnits="userSpaceOnUse"><stop offset="0.08" stop-color="#304b76"/><stop offset="0.22" stop-color="#30618e"/><stop offset="0.37" stop-color="#5098cd"/><stop offset="0.54" stop-color="#5098cd"/><stop offset="0.73" stop-color="#316290"/><stop offset="0.89" stop-color="#30608d"/><stop offset="1" stop-color="#30618e"/></linearGradient><radialGradient id="名称未設定グラデーション_160" cx="16.03" cy="12.78" fy="5.785104388104623" r="7.42" gradientUnits="userSpaceOnUse"><stop offset="0.37" stop-color="#dfb392"/><stop offset="0.53" stop-color="#f1d6ba"/><stop offset="0.7" stop-color="#fef8e7"/><stop offset="0.75" stop-color="#fbf0dc"/><stop offset="0.83" stop-color="#f2dabe"/><stop offset="0.9" stop-color="#eac6a3"/><stop offset="1" stop-color="#dfb392"/></radialGradient><linearGradient id="名称未設定グラデーション_103" x1="29.46" y1="-30.48" x2="21.97" y2="-20.89" gradientTransform="matrix(0.08, 0.53, 0.41, -0.06, 23.47, -12.38)" gradientUnits="userSpaceOnUse"><stop offset="0" stop-color="#ffc96a"/><stop offset="0.67" stop-color="#603813"/></linearGradient><linearGradient id="名称未設定グラデーション_103-2" x1="28.86" y1="-27.01" x2="21.37" y2="-17.42" gradientTransform="matrix(0.09, 0.53, -0.41, 0.07, 1.25, -9.09)" xlink:href="#名称未設定グラデーション_103"/><linearGradient id="名称未設定グラデーション_103-3" x1="24.71" y1="-19.64" x2="16.33" y2="-8.91" gradientTransform="matrix(0.57, 0.58, -0.41, 0.4, -7.64, -2.41)" xlink:href="#名称未設定グラデーション_103"/><linearGradient id="名称未設定グラデーション_103-4" x1="23.82" y1="-14.98" x2="15.24" y2="-4" gradientTransform="matrix(0.89, 0.46, -0.33, 0.65, -12.06, 3.15)" xlink:href="#名称未設定グラデーション_103"/><linearGradient id="名称未設定グラデーション_103-5" x1="12.83" y1="3.77" x2="3.87" y2="15.23" gradientTransform="matrix(1, 0, 0, 1, 0, 0)" xlink:href="#名称未設定グラデーション_103"/><linearGradient id="名称未設定グラデーション_103-6" x1="14" y1="5.65" x2="6.08" y2="15.79" gradientTransform="matrix(1, 0, 0, 1, 0, 0)" xlink:href="#名称未設定グラデーション_103"/><linearGradient id="名称未設定グラデーション_103-7" x1="16.45" y1="-1.95" x2="7.86" y2="9.05" gradientTransform="matrix(-0.43, 0.91, 0.66, 0.31, 23.72, -9.1)" xlink:href="#名称未設定グラデーション_103"/><linearGradient id="名称未設定グラデーション_103-8" x1="16.31" y1="3.58" x2="8.81" y2="13.19" gradientTransform="matrix(1, 0, 0, 1, 0, 0)" xlink:href="#名称未設定グラデーション_103"/><linearGradient id="名称未設定グラデーション_103-9" x1="21.61" y1="5.74" x2="18.12" y2="10.21" gradientTransform="matrix(-0.9, -0.77, -0.65, 0.76, 40.8, 18.42)" xlink:href="#名称未設定グラデーション_103"/><linearGradient id="名称未設定グラデーション_103-10" x1="16.9" y1="0.67" x2="7.44" y2="12.79" gradientTransform="matrix(-0.9, 0.46, 0.33, 0.65, 31.92, -4.27)" xlink:href="#名称未設定グラデーション_103"/><linearGradient id="名称未設定グラデーション_103-11" x1="16.97" y1="3.92" x2="9.02" y2="14.1" gradientTransform="matrix(-0.96, 0.27, 0.27, 0.96, 33.93, -2.68)" xlink:href="#名称未設定グラデーション_103"/><linearGradient id="名称未設定グラデーション_103-12" x1="18.65" y1="5.12" x2="10.9" y2="15.04" gradientTransform="matrix(-1, 0, 0, 1, 37, 0.52)" xlink:href="#名称未設定グラデーション_103"/><linearGradient id="名称未設定グラデーション_103-13" x1="19.76" y1="3.76" x2="12.3" y2="13.31" gradientTransform="matrix(-1, 0, 0, 1, 37, 0.52)" xlink:href="#名称未設定グラデーション_103"/><linearGradient id="名称未設定グラデーション_103-14" x1="17.19" y1="5.62" x2="12.12" y2="12.12" gradientTransform="translate(1.61 -2.34) rotate(9.3)" xlink:href="#名称未設定グラデーション_103"/><linearGradient id="名称未設定グラデーション_103-15" x1="19.8" y1="4.81" x2="14.59" y2="11.49" gradientTransform="matrix(-1, 0, 0, 1, 37, 0.52)" xlink:href="#名称未設定グラデーション_103"/></defs><g id="正面01"><path class="cls-1" d="M6.71,28.94c.06-.77,3.07-1.37,3.71-1.06l.35-10.55C8.87,19.37,6,24.39,6.71,28.94Z"/><path class="cls-2" d="M9,16.76c-1.46,2.69-4.47,10-4.53,11.79a1.81,1.81,0,0,0,.74.38l-.06.22a3.44,3.44,0,0,0,2.06.2C6.82,28,8.27,20.93,9.35,17Z"/><path class="cls-1" d="M25.25,30.65c-.06-.77-3.07-1.38-3.71-1.07L21.19,19C23.08,21.07,26,26.1,25.25,30.65Z"/><path class="cls-2" d="M23,18.47c1.47,2.68,4.48,10,4.54,11.78a1.59,1.59,0,0,1-.74.38l.06.23a3.37,3.37,0,0,1-2.06.19c.37-1.38-1.08-8.42-2.17-12.34Z"/><path class="cls-3" d="M15,30.27c0,1.83-5.11,1.69-5.11,0L10,29v-.44h5v1.75Z"/><path class="cls-4" d="M15,29.77c0,1.83-5.11,1.69-5.11,0L10,28.46V28h5v1.75Z"/><path class="cls-5" d="M16.94,29.61c0,1.87,5.11,1.73,5.11,0l-.13-1.33v-.45h-5v1.78Z"/><path class="cls-6" d="M16.94,29.12c0,1.87,5.11,1.72,5.11,0l-.13-1.34v-.45h-5v1.79Z"/><path class="cls-7" d="M23,18.65,16,19l-7-.34-.35,5-.49,4.24a7.27,7.27,0,0,0,7.77.21H16a8.22,8.22,0,0,0,7.77-.21l-.49-4.24Z"/><path class="cls-8" d="M23.84,27.23c-1.71,2.18-6.54,1.86-7.2.79L16.53,20s3.56-.32,4.9-1.08a1.24,1.24,0,0,0,.44-.34H10.11a1.16,1.16,0,0,0,.44.34c1.34.76,4.9,1.08,4.9,1.08L15.33,28c-.65,1.07-5.47,1.34-7.18-.84-.44.06-.51,1.35-.3,1.42,1.77,2,6.83,1.6,8.14.23,1.31,1.37,6.25,1.89,8-.08C24.23,28.68,24.22,27,23.84,27.23Z"/><path class="cls-9" d="M23.84,27.23c-1.71,2.18-6.54,1.45-7.2.38l0-7.38a33.28,33.28,0,0,0,4.81-1.77,1.24,1.24,0,0,0,.44-.34H10.11a1.16,1.16,0,0,0,.44.34,32.47,32.47,0,0,0,4.89,1.75l-.11,7.4c-.65,1.07-5.47,1.75-7.18-.43-.17,0-.31,1.08-.1,1.15,1.77,2,6.63,1.46,7.94.09,1.31,1.37,6.13,2,7.9.07C24.1,28.41,24,27.27,23.84,27.23Z"/><path class="cls-10" d="M23.57,25A69.85,69.85,0,0,1,8.41,25c-.14-.17.13-.77.13-.77a73.23,73.23,0,0,0,15,0A1.58,1.58,0,0,1,23.57,25Z"/><path class="cls-11" d="M6.85,19.29c-.21.27-1.33,1-1.48,1.74C5,22.76,7.18,23.41,7.93,22.92a1.9,1.9,0,0,0,.75-1.48S7.77,20.34,6.85,19.29Z"/><path class="cls-12" d="M6.15,19.58l2.34,3.28c0-1.29.66-3.61,2.06-4l-.69-1.14C8.9,17.64,6.52,18.58,6.15,19.58Z"/><path class="cls-11" d="M25.3,23.43c-.15.31-.27,1.58-.91,2.08a1.86,1.86,0,0,1-2.93-1.3,3,3,0,0,1,.71-1.52S23.91,23.14,25.3,23.43Z"/><path class="cls-12" d="M25.45,23.9l-4.12-.77-.14-2.5L24,18.79C24.91,19,25.4,22.84,25.45,23.9Z"/><path class="cls-2" d="M23.6,18.3c.43-.18-.22-1.44-1-1.14-1.45.59-6.32,3-6.59,3s-5.13-2.39-6.59-3c-.78-.3-1.48.91-1.05,1.09-.95.29-.89,1.52.28,1.93,1.46.53,7.36.42,7.36.42s5.45.21,7.37-.42C24.55,19.77,24.54,18.59,23.6,18.3Z"/><path class="cls-13" d="M24.21,16.07l.06-.11c.06-.12.87-2.08.61-2.7a.72.72,0,0,1,.46-.25.39.39,0,0,1,.26.1,1,1,0,0,1,.23,1.16A3.83,3.83,0,0,1,24.21,16.07Z"/><path class="cls-14" d="M25.34,13.13a.29.29,0,0,1,.18.08.8.8,0,0,1,.23.89,3.79,3.79,0,0,1-1.26,1.66A5.6,5.6,0,0,0,25,13.3a.56.56,0,0,1,.32-.17m0-.25a1,1,0,0,0-.62.36c.34.37-.41,2.38-.57,2.66s-.1.32,0,.32c.46,0,2.79-2.13,1.54-3.2a.5.5,0,0,0-.34-.14Z"/><path class="cls-13" d="M7.81,16.07a3.87,3.87,0,0,1-1.61-1.8,1,1,0,0,1,.22-1.16.41.41,0,0,1,.26-.1.74.74,0,0,1,.47.25c-.27.62.54,2.58.61,2.7A.8.8,0,0,1,7.81,16.07Z"/><path class="cls-14" d="M6.68,13.13A.51.51,0,0,1,7,13.3a5.55,5.55,0,0,0,.53,2.45A3.61,3.61,0,0,1,6.28,14.1a.78.78,0,0,1,.23-.89.27.27,0,0,1,.17-.08m0-.25a.52.52,0,0,0-.34.14c-1.25,1.07,1.08,3.2,1.54,3.2.1,0,.11-.1,0-.32S7,13.61,7.3,13.24a1,1,0,0,0-.62-.36Z"/><path class="cls-15" d="M16.1,19.5c-4.7,0-6.27-1.17-7.27-2.44-.9-.78-.87-1.77-.83-3,0-.27,0-.56,0-.85,0-3.89,3.58-7.06,8-7.06s8,3.17,8,7.06c0,.28,0,.54,0,.8,0,1.26.07,2.26-.84,3C21.83,18.47,20.56,19.5,16.1,19.5Z"/><path class="cls-14" d="M16,6.24c4.34,0,7.86,3.12,7.86,6.94,0,.28,0,.54,0,.8,0,1.28.06,2.2-.83,2.95-1.29,1.43-2.54,2.45-6.95,2.45-4.65,0-6.19-1.15-7.17-2.4v0l0,0c-.85-.71-.82-1.63-.78-2.9,0-.28,0-.56,0-.86,0-3.82,3.53-6.94,7.86-6.94M16,6c-4.48,0-8.11,3.22-8.11,7.19,0,1.67-.29,3,.84,4,1.21,1.54,3,2.49,7.37,2.49s5.72-.95,7.14-2.53c1.15-1,.88-2.27.88-3.92C24.12,9.21,20.48,6,16,6Z"/><path class="cls-16" d="M24.32,13.13a48.72,48.72,0,0,0-16.69,0L7,9.53a52.52,52.52,0,0,1,18,0Z"/><path class="cls-17" d="M13.2,5c-.34-1.65.31-4,3.79-4C16.57,2,16,4,16,4A2.56,2.56,0,0,1,13.2,5Z"/><path class="cls-18" d="M15,4.12C14.77,2.44,13.43.45,10.1,1.46,10.84,2.37,12,4,12,4A2.56,2.56,0,0,0,15,4.12Z"/><path class="cls-19" d="M14.5,4.16c-.18-1.34-2-1.56-2-1.56A7.07,7.07,0,0,0,5.7,4.89a19.63,19.63,0,0,1,5.25,0A22.88,22.88,0,0,0,14.5,4.16Z"/><path class="cls-20" d="M14.31,4.45c-.72-1.52-3.09-1.15-3.09-1.15S5.7,4.16,4,9.16A24.22,24.22,0,0,1,10.2,7S14.41,4.66,14.31,4.45Z"/><path class="cls-21" d="M14.08,5.18c-1.41-3.32-6,0-7.26,1.63C5.59,8.3,3,14.44,6.12,17c-.56-3.23,2.57-6.08,3.57-7.45C10.32,8.35,14.82,6.9,14.08,5.18Z"/><path class="cls-22" d="M13.28,5.18c-.69-1.28-3.65-.07-4.53,1.33C7.52,8,5.82,15.46,8.94,18c-.55-3.14,1.36-8.37,2.35-9.86C11.91,7,13.42,5.43,13.28,5.18Z"/><path class="cls-23" d="M15.31,4.37a2.7,2.7,0,0,1,2-2.68S21.63.14,26.54,3.6c-2.4.22-7.42.62-7.42.62S15.32,4.61,15.31,4.37Z"/><path class="cls-24" d="M17.17,4.25c-2-1.58-4.11.51-5.17,1.61-1.36,1.47-2.8,5.43-1.8,8.42.82-1.83,3.46-5.18,4.46-6.54C15.12,7.11,18.63,5.58,17.17,4.25Z"/><path class="cls-25" d="M17.62,6.31c1-.37,1.44.81,1.46,1.37,0,1.38-1.06,3-2.64,4.41a24.86,24.86,0,0,0,.5-4.62A1.58,1.58,0,0,1,17.62,6.31Z"/><path class="cls-26" d="M16.94,4c1.23-1.75,3.51-1.48,4.4-1.21,1.66.34,6.6,1.39,6.84,6.69a20.05,20.05,0,0,0-6.52-3.74C20.32,5.28,16.8,4.19,16.94,4Z"/><path class="cls-27" d="M19.26,5c.43-1.45,2.86-1,4-.28,1.85.89,6.27,6.3,3.65,11.55-.41-3.14-3.37-5.37-5.29-7.36A8.69,8.69,0,0,1,19.26,5Z"/><path class="cls-28" d="M19,5.25c.81-1.28,3-.59,3.88.41,1.64,1.49,4.4,8.89.41,12.1.65-3.39-.34-8-1.85-10.13C20.45,6.24,18.84,5.5,19,5.25Z"/><path class="cls-29" d="M17.36,4.3c.8-1.28,3-.59,3.88.41,1.43,1.48,3.3,6.84,1.18,10.91.65-3.39-2-8.62-4-9.19C17.15,6.35,17.2,4.55,17.36,4.3Z"/><path class="cls-30" d="M17.82,6.33C17.34,5,15.7,5.54,15.09,6c-1.45,1.26-2.25,3.87-2.31,6.82A33.71,33.71,0,0,1,17.2,8.12,2.31,2.31,0,0,0,17.82,6.33Z"/><path class="cls-31" d="M16.87,5.72c.8-1.28,2.3-.41,2.9.17,1.43,1.49,1.86,4.18,1.38,7.11a30,30,0,0,0-4-5A2.75,2.75,0,0,1,16.87,5.72Z"/><path class="cls-32" d="M13.43,15.05c0,1.48-.56,2.17-1.38,2.17-1.21,0-1.48-1-1.48-2.17s.45-2.24,1.48-2.18C12.87,12.87,13.43,13.85,13.43,15.05Z"/><ellipse class="cls-33" cx="12.05" cy="15.05" rx="1.03" ry="2.14"/><ellipse class="cls-32" cx="12.67" cy="14.66" rx="0.61" ry="0.39"/><line class="cls-34" x1="13.43" y1="13.62" x2="10.57" y2="12.81"/><path class="cls-32" d="M18.57,15.05c0,1.48.56,2.17,1.38,2.17,1.21,0,1.48-1,1.48-2.17S21,12.81,20,12.87C19.13,12.87,18.57,13.85,18.57,15.05Z"/><ellipse class="cls-33" cx="19.95" cy="15.05" rx="1.03" ry="2.14"/><ellipse class="cls-32" cx="19.33" cy="14.66" rx="0.61" ry="0.39"/><line class="cls-34" x1="18.57" y1="13.62" x2="21.43" y2="12.81"/></g></svg>